# xmcd
# 
# Track frame offsets:
#   150
#   9745
#   25294
#   37040
#   52082
#   65476
#   77519
#   87778
#   103266
#   114510
#   126426
#   138187
#   149860
#   160297
#   174442
#   187329
# 
# Disc length: 2683 seconds
# 
# Revision: 1
# Processed by: cddbd v1.5.2PL0 Copyright (c) Steve Scherf et al.
# Submitted via: Synapstar 1.0 
# 
DISCID=ec0a7910
DTITLE=Various Artist - CBEP451-06
DYEAR=1900
DGENRE=Country
TTITLE0=Loretta Lynn - Don't Come Home A Drinkin
TTITLE1=David Houston - Almost Persuaded
TTITLE2=Merle Haggard - Working Man Blues
TTITLE3=Jeannie Seely - Don't Touch Me
TTITLE4=Sonny James - Running Bear
TTITLE5=Jack Greene - There Goes My Everything
TTITLE6=Tammy Wynette - Your Good Girl's Gonna Go Bad
TTITLE7=Merle Haggard - Silver Wings
TTITLE8=Warner Mack - The Bridge Washed Out
TTITLE9=Connie Smith - Ain't Had No Lovin'
TTITLE10=Jim Ed Brown - Pop A Top
TTITLE11=Jan Howard - Evil On Your Mind
TTITLE12=Merle Haggard - Mama Tried
TTITLE13=Connie Smith - The Hurtin's All Over
TTITLE14=Glen Campbell - Galveston
TTITLE15=Merle Haggard - Swinging Doors
EXTD=MediaType: Karaoke CD+G Producer: Chartbuster
EXTT0=
EXTT1=
EXTT2=
EXTT3=
EXTT4=
EXTT5=
EXTT6=
EXTT7=
EXTT8=
EXTT9=
EXTT10=
EXTT11=
EXTT12=
EXTT13=
EXTT14=
EXTT15=
PLAYORDER=
